<?xml version="1.0" encoding="UTF-8"?> <svg xmlns="http://www.w3.org/2000/svg" width="48" height="48" viewBox="0 0 48 48" fill="none"><path d="M10.1725 14.7728H7.81746C6.25865 14.7728 4.995 15.9663 4.995 17.4385V30.1071C4.995 31.5793 6.25865 32.7728 7.81746 32.7728H10.1725C11.7313 32.7728 12.995 31.5793 12.995 30.1071V17.4385C12.995 15.9663 11.7313 14.7728 10.1725 14.7728Z" fill="#F15822"></path><path d="M42.6153 22.8715L28.7133 9.163C27.8758 8.33748 26.4224 8.90884 26.4224 10.0638V15.3402H16.6193C15.1763 15.3402 13.995 16.4788 13.995 17.8696V29.8884C13.995 31.2792 15.1763 32.4179 16.6193 32.4179H26.4224V37.4828C26.4224 38.6377 27.8758 39.207 28.7133 38.3836L42.6153 24.673C43.1216 24.1728 43.1216 23.3737 42.6153 22.8735V22.8715Z" fill="#F15822"></path></svg> 