<?xml version="1.0" encoding="UTF-8"?> <svg xmlns="http://www.w3.org/2000/svg" width="78" height="69" viewBox="0 0 78 69" fill="none"><g clip-path="url(#clip0_213_276)"><path d="M36.2113 68.4441C27.6525 66.7903 20.075 61.5118 15.3244 53.4233C14.7457 52.4384 15.0774 51.1715 16.0643 50.594C17.0513 50.0154 18.3207 50.3475 18.8993 51.3313C26.2894 63.9165 38.7902 66.2356 48.026 64.2098C59.4907 61.6944 67.6263 52.6404 68.7516 41.1417C68.8626 40.005 69.8758 39.1741 71.0148 39.2848C72.1504 39.4012 72.9864 40.4067 72.8744 41.5434C71.5706 54.8591 62.1667 65.342 48.9146 68.2477C44.5928 69.1962 40.2894 69.2316 36.2113 68.4429V68.4441Z" fill="#BBE90D"></path><path d="M31.5991 19.9457C19.6095 23.3 18.1857 25.0839 17.5853 37.4967C14.2242 25.5301 12.4368 24.1092 0 23.51C11.9896 20.1557 13.4134 18.3718 14.0138 5.95898C17.3749 17.9244 19.1623 19.3454 31.6003 19.9446L31.5991 19.9457Z" fill="#CFEF55"></path><path d="M78 13.9856C66.0104 17.3399 64.5866 19.1237 63.9862 31.5366C60.6251 19.5711 58.8376 18.1502 46.3997 17.551C58.3893 14.1967 59.8131 12.4129 60.4135 0C63.7746 11.9655 65.5621 13.3864 78 13.9856Z" fill="#CFEF55"></path></g><defs><clipPath id="clip0_213_276"><rect width="78" height="69" fill="white"></rect></clipPath></defs></svg> 