<?xml version="1.0" encoding="UTF-8"?> <svg xmlns="http://www.w3.org/2000/svg" width="38" height="38" viewBox="0 0 38 38" fill="none"><path d="M33.5234 14.449C33.5234 14.449 25.3481 16.8309 22.0577 17.8865C24.9666 16.2477 32.3963 11.7817 32.3963 11.7817C34.1189 10.0371 34.0993 7.19994 32.3544 5.47995C30.6096 3.75749 27.7721 3.77718 26.0519 5.52178C26.0519 5.52178 21.9568 12.9874 20.3744 16.0583C21.2727 12.8422 23.367 4.43171 23.367 4.43171C23.3497 1.97598 21.3318 -0.0146823 18.8806 8.15954e-05C16.4295 0.0173061 14.4361 2.03504 14.4533 4.48585C14.4533 4.48585 16.8356 12.6601 17.8913 15.95C16.2523 13.0415 11.7857 5.61282 11.7857 5.61282C10.0408 3.89037 7.20334 3.91005 5.48312 5.65465C3.76044 7.39925 3.78013 10.2364 5.52496 11.9564C5.52496 11.9564 12.9915 16.0509 16.0628 17.6331C12.8463 16.735 4.43475 14.6409 4.43475 14.6409C1.97624 14.6557 -0.0146842 16.6759 8.16059e-05 19.1267C0.0173084 21.5775 2.0353 23.5706 4.48643 23.5534C4.48643 23.5534 12.6618 21.1715 15.9521 20.1159C13.0432 21.7547 5.61355 26.2208 5.61355 26.2208C3.89087 27.9654 3.91056 30.8025 5.65539 32.5225C7.40021 34.2449 10.2377 34.2253 11.9579 32.4807C11.9579 32.4807 16.053 25.015 17.6329 21.9466C16.7347 25.1627 14.6404 33.5732 14.6404 33.5732C14.6576 36.024 16.6756 38.0171 19.1267 37.9999C21.5778 37.9827 23.5712 35.9649 23.554 33.5141C23.554 33.5141 21.1718 25.3398 20.116 22.05C21.755 24.9584 26.2217 32.3871 26.2217 32.3871C27.9665 34.1096 30.804 34.0899 32.5242 32.3453C34.2469 30.6007 34.2272 27.7636 32.4824 26.0436C32.4824 26.0436 25.0158 21.9491 21.9445 20.3669C25.161 21.265 33.5726 23.359 33.5726 23.359C36.0237 23.3418 38.0171 21.3241 37.9999 18.8733C37.9827 16.4225 35.9647 14.4293 33.5135 14.4466L33.5234 14.449ZM20.6574 19.7616L19.6706 20.7606C19.6534 20.7261 19.6411 20.7089 19.6361 20.7089L18.2309 20.7187C18.2432 20.6843 18.2482 20.6622 18.2432 20.6572L17.2441 19.6705C17.2785 19.6533 17.2958 19.641 17.2958 19.6361L17.2859 18.231C17.3204 18.2433 17.3425 18.2483 17.3474 18.2433L18.3343 17.2443C18.3515 17.2788 18.3638 17.296 18.3687 17.296L19.774 17.2861C19.7617 17.3206 19.7567 17.3427 19.7617 17.3477L20.7608 18.3344C20.7264 18.3516 20.7091 18.3639 20.7091 18.3688L20.719 19.7739C20.6845 19.7616 20.6624 19.7566 20.6574 19.7616Z" fill="#F15822"></path></svg> 