<?xml version="1.0" encoding="UTF-8"?> <svg xmlns="http://www.w3.org/2000/svg" width="55" height="63" viewBox="0 0 55 63" fill="none"><g clip-path="url(#clip0_213_287)"><path d="M22.8464 14.2369C29.6551 12.271 36.6801 12.7056 43.0479 16.4222C48.3177 19.7002 51.8322 24.5054 53.8079 30.188C55.5631 35.8706 55.3468 41.7684 53.367 47.2317C51.1709 54.0069 46.5583 60.3435 39.5333 62.9634C38.4353 63.1828 38.2149 62.3094 38.4353 61.4321C40.1905 57.2808 43.7051 51.8176 39.9742 47.8857C39.0966 47.0123 37.7781 47.447 36.6801 47.447C36.0229 47.6663 35.3616 47.8857 34.7044 48.1009C28.557 50.0669 22.1892 50.7249 16.0377 48.5396C10.9884 46.5737 6.81663 43.2957 3.95927 38.7058C3.51842 37.8325 2.86123 36.7398 2.42038 35.8665C-3.50659 23.1975 1.76319 6.36902 14.7193 0.25181C15.3764 0.0324675 16.0377 -0.186875 16.6949 0.25181C16.9153 0.471152 16.6949 0.905775 16.6949 1.34446C15.156 5.06109 12.9599 8.77367 13.6212 12.9249C13.8416 14.2369 14.7193 15.1102 15.8173 15.3296C18.2338 15.7683 20.6503 15.3296 22.8464 14.2369Z" fill="#BBE90D"></path><path d="M43.2985 29.7156C31.3089 33.0699 29.8851 34.8537 29.2847 47.2666C25.9236 35.3011 24.1362 33.8802 11.6982 33.281C23.6879 29.9267 25.1117 28.1428 25.7121 15.73C29.0731 27.6954 30.8606 29.1164 43.2985 29.7156Z" fill="#F15822"></path></g><defs><clipPath id="clip0_213_287"><rect width="55" height="63" fill="white"></rect></clipPath></defs></svg> 