<?xml version="1.0" encoding="UTF-8"?> <svg xmlns="http://www.w3.org/2000/svg" width="41" height="73" viewBox="0 0 41 73" fill="none"><g clip-path="url(#clip0_213_282)"><path d="M18.39 43.1298C14.44 47.5898 11.46 52.5598 12.17 59.4498C12.43 62.0098 13.67 65.1998 15.5 67.7498C17.06 69.9398 19.06 71.6598 21.25 72.1198C13.51 71.4098 6.46998 67.0498 2.75998 60.5798C-0.950016 54.0898 -1.33002 45.4998 4.25998 36.3698C5.53998 34.2798 7.27998 32.4098 9.17998 30.6398C13.85 26.2598 19.51 22.4498 22 17.1198C25.25 10.6198 22.5 2.11981 15.25 0.11981C22.25 -0.88019 31.11 4.69981 33.08 11.6198C34.92 18.0398 33.92 24.5398 30.42 29.7898C27.29 34.6798 22.36 38.6398 18.4 43.1198L18.39 43.1298Z" fill="#BBE90D"></path><path d="M28.94 61.4301C28.44 65.9301 30.46 68.4101 33.5 71.1201C32.19 71.3201 30.98 71.3601 29.86 71.2801H29.84C29.64 71.2701 29.44 71.2601 29.24 71.2301C28.7 71.1601 28.18 71.0701 27.69 70.9601C27.44 70.9001 27.2 70.8301 26.97 70.7601C26.8 70.7201 26.64 70.6601 26.47 70.6001C20.42 68.5301 18.03 62.5101 17.75 60.3701C17.16 55.8701 18.36 53.0401 20 50.3701C24.69 42.7401 35.58 37.7901 36 27.6201C39.83 30.7901 43.5 40.7001 36 48.7001C32.5 52.7001 29.69 55.6801 28.94 61.4301Z" fill="#BBE90D"></path></g><defs><clipPath id="clip0_213_282"><rect width="40.35" height="72.12" fill="white"></rect></clipPath></defs></svg> 