<?xml version="1.0" encoding="UTF-8"?> <svg xmlns="http://www.w3.org/2000/svg" width="48" height="48" viewBox="0 0 48 48" fill="none"><path d="M18.4248 9.68665C12.1961 13.5267 8.40562 19.2355 8.49913 23.9027C9.67631 20.916 12.4862 17.7243 16.3893 15.3168C23.0256 11.2241 30.3045 10.9524 32.6493 14.709C34.9916 18.4656 31.5104 24.8276 24.8741 28.9203C23.4692 29.7856 22.0355 30.4792 20.6257 31.0012C23.5099 30.5316 26.6075 29.3851 29.5709 27.5592C37.557 22.6346 41.5344 14.6423 38.456 9.7081C35.3776 4.77395 26.4085 4.76441 18.4224 9.68665H18.4248Z" fill="#F15822"></path><path d="M29.8975 37.1295C35.7405 32.6983 38.9752 26.6301 38.44 21.9663C37.5498 25.0651 35.0518 28.5258 31.3901 31.301C25.1655 36.0223 17.938 36.9786 15.2456 33.4388C12.5557 29.899 15.4208 23.203 21.6453 18.4841C22.9627 17.4847 24.3257 16.6555 25.6814 16.0012C22.8523 16.7418 19.8744 18.1797 17.0957 20.2887C9.60662 25.9686 6.40077 34.3423 9.93536 38.9941C13.47 43.6435 22.4084 42.8095 29.8999 37.1295H29.8975Z" fill="#F15822"></path></svg> 