<?xml version="1.0" encoding="UTF-8"?> <svg xmlns="http://www.w3.org/2000/svg" width="39" height="38" viewBox="0 0 39 38" fill="none"><path d="M24.5 5.60691V13.4745H16.5814C15.1485 13.4745 13.9745 14.6485 13.9745 16.0814V24H6.10691C4.67403 24 3.5 22.826 3.5 21.3931V5.60691C3.5 4.17403 4.67403 3 6.10691 3H21.8931C23.326 3 24.5 4.17403 24.5 5.60691Z" fill="#F15822"></path><path d="M35.5 16.6069V32.3931C35.5 33.826 34.326 35 32.8931 35H17.1069C15.674 35 14.5 33.826 14.5 32.3931V24.5255H22.4186C23.8515 24.5255 25.0255 23.3515 25.0255 21.9186V14H32.8931C34.326 14 35.5 15.174 35.5 16.6069Z" fill="#F15822"></path></svg> 